#!OML:ASF Y:\EmotionMaleHayes\Project 1\Capture day 1\Session 1\Male1.ASF
:FULLY-SPECIFIED
:DEGREES
687
root 44.6233 17.7871 -6.61752 -156.322 65.7639 -172.741
lowerback 15.7004 3.38992 -8.38898
upperback 4.99087 3.62467 -7.99402
thorax -3.37238 2.14171 -4.47808
lowerneck -17.8919 -13.3732 -7.53616
upperneck 17.2253 -20.4863 17.8048
head 11.3532 -8.01637 4.15138
rclavicle -1.74931e-014 7.31528e-014
rhumerus -4.26967 60.8 -90.8722
rradius 78.3687
rwrist -5.35382
rhand -24.554 -17.2068
rfingers 7.12502
rthumb 1.94229 -47.1777
lclavicle -1.74931e-014 7.31528e-014
lhumerus 1.18639 -18.005 73.8627
lradius 26.2982
lwrist 7.43117
lhand -29.5736 -23.6762
lfingers 7.12502
lthumb -2.90566 6.28375
rfemur -1.44647 0.593578 30.3544
rtibia 25.7256
rfoot -9.76276 10.262
rtoes 17.2596
lfemur -33.9297 -5.6917 2.35446
ltibia 27.447
lfoot 347.139 -2.83517
ltoes -34.9465
688
root 44.8291 17.7712 -6.74887 -151.781 68.3506 -167.065
lowerback 15.0549 2.92362 -8.1098
upperback 5.10084 3.11775 -7.94621
thorax -2.91095 1.86814 -4.42822
lowerneck -18.4471 -13.163 -7.54677
upperneck 17.4544 -20.1294 17.3511
head 11.4273 -7.86987 4.03957
rclavicle 1.59028e-014 -1.17681e-013
rhumerus -6.86484 57.7108 -91.243
rradius 75.3935
rwrist -5.12851
rhand -25.4338 -19.0096
rfingers 7.12502
rthumb 1.09263 -48.9865
lclavicle 1.59028e-014 -1.17681e-013
lhumerus 0.65133 -19.2837 74.4213
lradius 28.0205
lwrist 8.74436
lhand -30.1106 -23.8111
lfingers 7.12502
lthumb -3.42425 6.14115
rfemur -0.415846 1.34934 30.1087
rtibia 29.0663
rfoot -10.5128 8.54662
rtoes 16.3424
lfemur -32.0283 -7.48928 4.56741
ltibia 24.5838
lfoot 347.235 -3.84021
ltoes -36.0263
689
root 45.0228 17.7305 -6.88264 -144.718 70.2654 -158.734
lowerback 14.8182 2.34413 -6.83332
upperback 5.07332 2.50365 -7.81612
thorax -2.79574 1.54151 -4.87228
lowerneck -18.8041 -12.9235 -7.54244
upperneck 17.688 -19.7322 16.9048
head 11.4614 -7.71532 3.94737
rclavicle -5.08889e-014 -6.67916e-014
rhumerus -8.90768 53.652 -91.2114
rradius 72.1432
rwrist -4.55273
rhand -24.0841 -18.7852
rfingers 7.12502
rthumb 2.39618 -48.7515
lclavicle -5.08889e-014 -6.67916e-014
lhumerus 0.365201 -19.8444 75.0486
lradius 29.1737
lwrist 9.74922
lhand -30.8274 -24.6149
lfingers 7.12502
lthumb -4.11651 5.32508
rfemur 0.309745 2.81513 30.6335
rtibia 32.7809
rfoot -10.5424 7.65825
rtoes 11.8665
lfemur -30.5889 -8.73907 7.11592
ltibia 23.2083
lfoot 347.276 -5.08262
ltoes -35.6165
690
root 45.2085 17.668 -7.01835 -137.918 72.2884 -150.627
lowerback 14.7468 1.81042 -6.25398
upperback 5.20602 1.87543 -7.79459
thorax -2.62746 1.21944 -5.05509
lowerneck -18.9489 -12.827 -8.29925
upperneck 17.6059 -19.4544 17.1386
head 11.5313 -7.62197 4.19283
rclavicle 3.49861e-014 -4.77083e-014
rhumerus -9.62007 48.5726 -90.1957
rradius 68.1281
rwrist -3.48223
rhand -23.2692 -19.193
rfingers 7.12502
rthumb 3.1831 -49.1489
lclavicle 3.49861e-014 -4.77083e-014
lhumerus 0.470246 -20.9617 75.3415
lradius 30.6239
lwrist 11.5017
lhand -31.7179 -25.358
lfingers 7.12502
lthumb -4.97637 4.56355
rfemur 0.946948 4.7459 30.3457
rtibia 36.8388
rfoot -10.4159 7.82362
rtoes 11.6703
lfemur -28.9252 -9.37521 8.24984
ltibia 22.5662
lfoot 347.785 -5.98414
ltoes -32.8704
691
root 45.3921 17.5829 -7.16976 -130.693 74.3531 -142.002
lowerback 14.8335 1.33163 -6.06428
upperback 5.45112 1.27453 -7.79992
thorax -2.43644 0.916221 -5.06094
lowerneck -19.1926 -12.7777 -9.03961
upperneck 17.3286 -19.2043 17.3771
head 11.5471 -7.54424 4.42656
rclavicle 0 -6.67916e-014
rhumerus -9.26493 43.641 -87.4397
rradius 64.6787
rwrist -3.00806
rhand -23.9443 -20.0743
rfingers 7.12502
rthumb 2.53115 -50.039
lclavicle 0 -6.67916e-014
lhumerus 0.916389 -20.5138 76.2015
lradius 31.8847
lwrist 12.2368
lhand -32.3331 -26.6767
lfingers 7.12502
lthumb -5.57033 3.23013
rfemur 1.56055 6.70368 29.3013
rtibia 40.9362
rfoot -10.0297 8.75314
rtoes 10.1283
lfemur -26.9701 -9.25118 8.10401
ltibia 22.4551
lfoot 348.239 -6.36304
ltoes -31.8666
692
root 45.5642 17.4587 -7.33066 -122.834 76.1184 -132.98
lowerback 14.9666 0.760683 -5.92187
upperback 5.58182 0.522473 -7.82894
thorax -2.40234 0.537257 -5.04597
lowerneck -19.3323 -12.6241 -9.05185
upperneck 17.0057 -18.8209 16.9416
head 11.3357 -7.44176 4.33994
rclavicle -1.43125e-014 0
rhumerus -8.91727 36.6971 -85.1427
rradius 61.1047
rwrist -1.22505
rhand -23.0624 -20.8838
rfingers 7.12502
rthumb 3.38285 -50.8367
lclavicle -1.43125e-014 0
lhumerus 1.7587 -21.0951 76.8508
lradius 32.9332
lwrist 14.5459
lhand -33.1208 -28.0809
lfingers 7.12502
lthumb -6.33083 1.80445
rfemur 1.71506 8.52997 27.7898
rtibia 45.1454
rfoot -9.43068 9.60428
rtoes 10.03
lfemur -25.654 -8.36501 7.27258
ltibia 23.3825
lfoot 348.926 -6.73446
ltoes -24.1436
693
root 45.727 17.309 -7.51034 -113.123 77.183 -121.981
lowerback 15.5202 0.0789901 -5.28063
upperback 5.56473 -0.37979 -7.74111
thorax -2.76941 0.0813223 -5.1709
lowerneck -19.3211 -12.524 -8.99983
upperneck 16.8416 -18.5093 16.2779
head 11.1322 -7.39142 4.15652
rclavicle -1.11319e-014 5.725e-014
rhumerus -8.24951 30.4509 -82.0369
rradius 58.1042
rwrist -0.410292
rhand -23.1558 -21.7713
rfingers 7.12502
rthumb 3.29263 -51.7256
lclavicle -1.11319e-014 5.725e-014
lhumerus 2.59735 -21.2548 77.5767
lradius 34.2204
lwrist 15.9517
lhand -33.7386 -28.7
lfingers 7.12502
lthumb -6.9272 1.16667
rfemur 1.78051 10.1688 26.3932
rtibia 49.4947
rfoot -9.1767 10.0953
rtoes 10.8124
lfemur -24.4603 -7.209 6.46027
ltibia 26.5833
lfoot 347.594 0.0966864
ltoes -39.4404
694
root 45.9152 17.1583 -7.67904 -99.6305 77.6975 -106.76
lowerback 16.2464 -0.482539 -5.16084
upperback 5.72517 -1.17786 -7.49511
thorax -3.02821 -0.324799 -4.8336
lowerneck -18.9927 -12.0514 -9.08082
upperneck 16.2772 -17.8701 16.8228
head 10.8522 -7.0969 4.50392
rclavicle -4.77083e-015 1.27222e-014
rhumerus -7.05136 24.7664 -78.6815
rradius 55.9733
rwrist -0.20063
rhand -23.946 -22.6903
rfingers 7.12502
rthumb 2.52951 -52.655
lclavicle -4.77083e-015 1.27222e-014
lhumerus 3.83218 -21.7893 77.3952
lradius 35.9551
lwrist 17.6981
lhand -34.4243 -30.3123
lfingers 7.12502
lthumb -7.58915 -0.468433
rfemur 1.99196 12.3479 25.3668
rtibia 53.9174
rfoot -9.60293 9.63102
rtoes 10.6163
lfemur -22.2307 -6.25552 6.19025
ltibia 30.8123
lfoot 343.624 0.960228
ltoes -34.9167
695
root 46.0824 16.9829 -7.85946 -86.5952 77.6057 -92.3236
lowerback 17.1564 -0.783147 -4.8309
upperback 5.91572 -1.60255 -7.02165
thorax -3.32909 -0.546812 -4.42919
lowerneck -19.7729 -12.2755 -9.30642
upperneck 16.0169 -17.8727 16.1056
head 10.8308 -7.16706 4.24397
rclavicle -3.49861e-014 -1.08139e-013
rhumerus -5.65215 19.0773 -74.0701
rradius 54.7347
rwrist -1.87777
rhand -24.9788 -24.1325
rfingers 7.12502
rthumb 1.53202 -54.1068
lclavicle -3.49861e-014 -1.08139e-013
lhumerus 5.99551 -22.7127 77.9648
lradius 37.1982
lwrist 18.7359
lhand -35.3735 -34.0256
lfingers 7.12502
lthumb -8.50527 -4.21685
rfemur 1.38955 13.7873 23.6397
rtibia 58.3293
rfoot -10.2547 8.92822
rtoes 8.41122
lfemur -20.5179 -5.67098 5.71555
ltibia 34.4363
lfoot 340.858 2.57569
ltoes -33.3864
696
root 46.2293 16.7927 -8.01707 -75.0971 77.1379 -79.5407
lowerback 17.9323 -0.889661 -4.93853
upperback 6.27737 -1.78695 -6.44944
thorax -3.3387 -0.648129 -3.71153
lowerneck -20.1705 -12.8091 -10.6731
upperneck 15.5458 -18.3069 16.7663
head 11.0111 -7.37856 4.57123
rclavicle 2.54444e-014 0
rhumerus -4.66838 13.3011 -68.7838
rradius 54.4453
rwrist -3.58933
rhand -25.4475 -25.3145
rfingers 7.12502
rthumb 1.07941 -55.2916
lclavicle 2.54444e-014 0
lhumerus 9.07153 -23.9456 78.3391
lradius 38.8359
lwrist 17.94
lhand -35.7232 -33.2065
lfingers 7.12502
lthumb -8.84267 -3.41181
rfemur 0.443566 15.0159 21.6572
rtibia 62.5599
rfoot -10.9903 7.56095
rtoes 11.9898
lfemur -19.1814 -5.1911 5.09821
ltibia 37.6803
lfoot 338.935 4.82643
ltoes -34.8388
697
root 46.3805 16.5962 -8.16417 -63.4803 76.6733 -66.5608
lowerback 19.3713 -0.720064 -5.84112
upperback 5.90162 -1.90723 -6.03842
thorax -4.45261 -0.706872 -2.73172
lowerneck -18.6538 -12.6673 -11.2378
upperneck 14.7677 -17.9117 16.6623
head 10.4331 -7.37281 4.75855
rclavicle -7.95139e-015 4.45278e-014
rhumerus -5.37988 9.65877 -63.4884
rradius 55.0941
rwrist -7.54273
rhand -26.2935 -26.344
rfingers 7.12502
rthumb 0.262264 -56.3236
lclavicle -7.95139e-015 4.45278e-014
lhumerus 10.9729 -26.0794 78.55
lradius 40.6998
lwrist 17.1512
lhand -34.9266 -33.8877
lfingers 7.12502
lthumb -8.07394 -4.06198
rfemur -0.619151 16.1649 18.9145
rtibia 66.4234
rfoot -11.7866 6.01842
rtoes 14.0179
lfemur -16.753 -4.19412 3.86242
ltibia 38.6752
lfoot 337.981 6.14134
ltoes -33.7727
